<svg width="102" height="50" viewBox="0 0 102 50" fill="none" xmlns="http://www.w3.org/2000/svg">
<path d="M0 0V50H51.5483L102 0H0ZM13.8816 9.30849H13.8975C17.5663 9.30849 22.032 10.3315 25.2673 11.9735L21.7834 17.9949C18.2293 16.2867 16.4539 16.1383 14.4298 16.0215C11.424 15.8573 9.91313 16.9277 9.87806 18.077C9.86213 19.479 12.7341 20.742 15.4402 21.6135C19.5234 22.8986 24.735 24.6227 25.5351 29.6085L33.0225 10.0063H41.718L50.4868 33.4733L50.4517 10.0063H60.5274C70.125 10.0063 74.6385 13.227 74.6385 20.6126C74.6385 27.2403 70.0102 31.2062 62.1562 31.2062H58.9178L58.8699 40.0189L43.6305 40.0032L42.5691 36.173C40.9912 36.7003 39.2158 36.9814 37.3384 36.9814C35.3972 36.9814 33.5676 36.6814 31.9611 36.1446L30.447 40.0063L21.9459 40.0221L22.3284 38.0802C22.1978 38.197 22.0766 38.2949 21.9459 38.396C19.6892 40.2021 16.8172 41.0452 13.2983 41.1083H12.3834C8.54887 41.1588 4.76213 40.1737 1.428 38.2791L4.52944 32.1787C7.88269 34.1522 9.996 34.5785 12.8329 34.5311C14.3087 34.4964 15.3701 34.2311 16.0682 33.5238C16.4858 33.0976 16.7184 32.5545 16.7344 31.9608C16.7631 30.3821 14.4744 29.6464 11.7013 28.7875C9.44456 28.096 6.86906 27.1456 4.87687 25.6805C2.50537 23.9722 1.35787 21.7998 1.42481 18.7433C1.44075 16.5709 2.30456 14.4995 3.83137 12.9555C6.04031 10.6852 9.59438 9.31797 13.8784 9.31797L13.8816 9.30849ZM58.9018 16.3309V24.3606H61.1299C64.0656 24.3606 66.4243 23.3881 66.4243 20.2968C66.4243 17.3034 64.0656 16.3309 61.1299 16.3309H58.9018ZM37.2842 19.5706L34.1126 29.5011C35.0593 29.8642 36.1558 30.06 37.3161 30.06C38.4636 30.06 39.5441 29.8611 40.4685 29.5327L37.3479 19.5516L37.2842 19.5706Z" fill="#B9386C"/>
</svg>
